<svg xmlns="http://www.w3.org/2000/svg" xmlns:xlink="http://www.w3.org/1999/xlink" width="400" zoomAndPan="magnify" viewBox="0 0 300 299.999988" height="400" preserveAspectRatio="xMidYMid meet" version="1.0"><defs><g/><clipPath id="659df7724f"><path d="M 51.066406 33 L 248 33 L 248 143 L 51.066406 143 Z M 51.066406 33 " clip-rule="nonzero"/></clipPath></defs><path fill="#ffffff" d="M 110.933594 131.144531 L 128.253906 131.96875 L 128.253906 112.820312 C 122.402344 111.355469 116.597656 109.40625 110.933594 106.890625 L 110.933594 131.144531 " fill-opacity="1" fill-rule="nonzero"/><path fill="#ffffff" d="M 81.507812 99.085938 L 81.507812 129.75 L 102.699219 130.753906 L 102.699219 103.179688 C 96.007812 100.589844 88.675781 98.925781 81.507812 99.085938 " fill-opacity="1" fill-rule="nonzero"/><path fill="#3972bf" d="M 196.292969 88.550781 L 187.34375 97.480469 L 180.816406 92.382812 L 189.0625 84.15625 C 188.078125 83.40625 181.75 78.179688 180.695312 77.316406 L 172.285156 85.714844 L 165.757812 80.605469 L 174.308594 72.070312 L 165.960938 65.21875 L 157.21875 73.9375 L 150.691406 68.828125 L 159.574219 59.972656 L 151.226562 53.109375 L 142.152344 62.160156 L 135.625 57.054688 L 144.839844 47.875 C 141.742188 45.324219 137.507812 41.222656 129.773438 42.296875 C 121.515625 43.449219 118.800781 48.925781 114.285156 55.457031 C 107.324219 65.519531 93.042969 67.132812 84 58.898438 C 74.777344 50.503906 69.941406 43.800781 62.898438 48.714844 C 58.03125 52.117188 59.25 52.878906 59.25 97.589844 C 75.359375 86.785156 97.660156 90.429688 113.027344 98.84375 C 133.765625 108.425781 157.019531 109.589844 176.773438 107.832031 L 176.875 107.933594 L 176.984375 107.8125 C 194.855469 106.199219 213.242188 101.824219 229.59375 96.015625 C 204.824219 91.519531 202.519531 91.5 196.292969 88.550781 " fill-opacity="1" fill-rule="nonzero"/><path fill="#ffffff" d="M 73.269531 127.847656 L 73.269531 100.1875 C 67.957031 101.5625 63.292969 104.210938 59.308594 108.113281 C 59.914062 116.960938 65.453125 124.464844 73.269531 127.847656 " fill-opacity="1" fill-rule="nonzero"/><path fill="#ffffff" d="M 238.425781 101.492188 C 208.285156 113.429688 169.550781 120.472656 136.492188 114.582031 L 136.492188 132.359375 C 185.703125 134.699219 194.867188 136.785156 212.789062 129.519531 C 241.785156 117.773438 239 121.503906 239 104.472656 C 239 103.429688 238.789062 102.414062 238.425781 101.492188 " fill-opacity="1" fill-rule="nonzero"/><g clip-path="url(#659df7724f)"><path fill="#302f30" d="M 233.808594 88.429688 C 191.878906 80.828125 207.960938 89.082031 147.605469 39.496094 C 136.5625 30.429688 120.015625 32.695312 111.871094 44.484375 C 107.726562 50.472656 105.574219 55.136719 98.996094 55.890625 C 92.175781 56.652344 89.621094 52.910156 79.121094 43.339844 C 68.230469 33.417969 51.011719 41.332031 51.011719 55.707031 L 51.011719 106.5 C 51.011719 123.339844 64.226562 137.15625 81.082031 137.949219 C 210.105469 144.078125 190.339844 147.476562 237.039062 128.558594 C 248.925781 123.742188 247.226562 112.015625 247.226562 104.472656 C 247.226562 96.585938 241.585938 89.835938 233.808594 88.429688 Z M 73.269531 127.847656 C 65.453125 124.464844 59.914062 116.960938 59.308594 108.113281 C 63.292969 104.210938 67.957031 101.5625 73.269531 100.1875 Z M 59.25 97.589844 C 59.25 52.988281 58.019531 52.117188 62.898438 48.714844 C 74.96875 40.289062 80.378906 66.261719 99.933594 64.042969 C 110.351562 62.859375 114.074219 55.769531 118.648438 49.148438 C 124.058594 41.3125 135.011719 39.796875 142.363281 45.835938 L 144.839844 47.875 L 135.625 57.054688 L 142.152344 62.160156 L 151.226562 53.109375 L 159.574219 59.972656 L 150.691406 68.828125 L 157.21875 73.9375 L 165.960938 65.21875 L 174.308594 72.070312 L 165.757812 80.605469 L 172.285156 85.714844 L 180.695312 77.316406 C 181.75 78.179688 188.078125 83.40625 189.0625 84.15625 L 180.816406 92.382812 L 187.34375 97.480469 L 196.292969 88.550781 C 202.441406 91.460938 204.492188 91.460938 229.59375 96.015625 C 213.273438 101.8125 194.875 106.199219 176.984375 107.8125 L 176.875 107.933594 L 176.773438 107.832031 C 125.859375 112.367188 114.9375 95.59375 91.957031 91.691406 C 79.34375 89.546875 68.210938 91.582031 59.25 97.589844 Z M 102.699219 130.753906 L 81.507812 129.75 L 81.507812 99.085938 C 88.675781 98.925781 96.007812 100.589844 102.699219 103.179688 Z M 128.253906 131.96875 L 110.933594 131.144531 L 110.933594 106.890625 C 116.597656 109.40625 122.402344 111.355469 128.253906 112.820312 Z M 233.929688 120.953125 C 192.765625 137.636719 203.910156 135.570312 136.492188 132.359375 L 136.492188 114.582031 C 169.582031 120.472656 208.515625 113.339844 238.425781 101.492188 C 238.789062 102.414062 239 103.429688 239 104.472656 C 239 112.488281 240.15625 118.425781 233.929688 120.953125 " fill-opacity="1" fill-rule="nonzero"/></g><g fill="#ffffff" fill-opacity="1"><g transform="translate(24.531363, 199.091849)"><g><path d="M 20.667969 0.863281 C 33.03125 0.863281 40.859375 -3.71875 40.816406 -10.375 C 40.816406 -16.300781 36.058594 -19.238281 24.992188 -20.234375 L 19.886719 -20.667969 C 16.214844 -20.96875 14.613281 -21.445312 14.65625 -22.179688 C 14.699219 -23.347656 17.640625 -23.953125 21.746094 -23.996094 C 26.199219 -24.039062 31.433594 -23 35.324219 -21.140625 L 38.523438 -29.054688 C 34.15625 -30.957031 27.929688 -32.039062 21.617188 -32.039062 C 9.425781 -32.039062 1.296875 -28.191406 1.253906 -21.1875 C 1.253906 -15.390625 5.835938 -12.496094 16.515625 -11.5 L 21.488281 -11.023438 C 25.640625 -10.679688 27.410156 -10.117188 27.410156 -9.210938 C 27.410156 -8.085938 25.121094 -7.566406 21.402344 -7.566406 C 15.910156 -7.566406 9.210938 -9.167969 4.886719 -11.371094 L 0.863281 -3.113281 C 5.578125 -0.734375 13.75 0.863281 20.667969 0.863281 Z M 20.667969 0.863281 "/></g></g></g><g fill="#ffffff" fill-opacity="1"><g transform="translate(66.19336, 199.091849)"><g><path d="M 2.160156 0 L 36.320312 0 L 36.320312 -8.214844 L 15.566406 -8.214844 L 15.566406 -12.324219 L 34.15625 -12.324219 L 34.15625 -19.238281 L 15.566406 -19.238281 L 15.566406 -22.914062 L 35.886719 -22.914062 L 35.886719 -31.128906 L 2.160156 -31.128906 Z M 2.160156 0 "/></g></g></g><g fill="#ffffff" fill-opacity="1"><g transform="translate(103.360718, 199.091849)"><g><path d="M 2.160156 0 L 15.996094 0 L 15.996094 -9.078125 L 28.492188 -9.078125 C 37.703125 -9.078125 42.804688 -12.925781 42.804688 -19.886719 C 42.804688 -27.109375 37.746094 -31.128906 28.621094 -31.128906 L 2.160156 -31.128906 Z M 15.996094 -16.429688 L 15.996094 -23.78125 L 23.738281 -23.78125 C 27.066406 -23.78125 28.925781 -22.484375 28.925781 -20.105469 C 28.925781 -17.726562 27.066406 -16.429688 23.738281 -16.429688 Z M 15.996094 -16.429688 "/></g></g></g><g fill="#ffffff" fill-opacity="1"><g transform="translate(147.010751, 199.091849)"><g><path d="M -0.0429688 0 L 14.226562 0 L 16.082031 -4.757812 L 29.746094 -4.757812 L 31.605469 0 L 45.917969 0 L 31.171875 -31.128906 L 15.175781 -31.128906 Z M 18.417969 -12.105469 L 22.914062 -22.957031 L 23 -22.957031 L 27.410156 -12.105469 Z M 18.417969 -12.105469 "/></g></g></g><g fill="#ffffff" fill-opacity="1"><g transform="translate(192.908115, 199.091849)"><g><path d="M 11.671875 0 L 25.507812 0 L 25.507812 -21.617188 L 36.75 -21.617188 L 36.75 -31.128906 L 0.433594 -31.128906 L 0.433594 -21.617188 L 11.671875 -21.617188 Z M 11.671875 0 "/></g></g></g><g fill="#ffffff" fill-opacity="1"><g transform="translate(230.075473, 199.091849)"><g><path d="M 22.699219 0.648438 C 36.1875 0.648438 43.667969 -4.667969 43.667969 -14.269531 L 43.667969 -31.128906 L 29.832031 -31.128906 L 29.832031 -15.132812 C 29.832031 -11.070312 27.28125 -9.078125 22.699219 -9.078125 C 18.117188 -9.078125 15.566406 -11.070312 15.566406 -15.132812 L 15.566406 -31.128906 L 1.730469 -31.128906 L 1.730469 -14.269531 C 1.730469 -4.667969 9.210938 0.648438 22.699219 0.648438 Z M 22.699219 0.648438 "/></g></g></g><g fill="#ffffff" fill-opacity="1"><g transform="translate(66.668264, 242.780006)"><g><path d="M 11.082031 0 C 12.960938 0 15.480469 -0.410156 17.09375 -1.964844 C 18.0625 -2.933594 18.734375 -4.308594 18.734375 -6.304688 C 18.734375 -9.441406 16.976562 -11.492188 13.808594 -11.726562 C 16.183594 -11.960938 17.621094 -14.101562 17.621094 -16.769531 C 17.621094 -18.382812 17.152344 -19.761719 16.125 -20.730469 C 15.011719 -21.785156 13.28125 -22.371094 10.730469 -22.371094 L 2.316406 -22.371094 L 2.316406 0 Z M 5.011719 -19.9375 L 10.144531 -19.9375 C 11.757812 -19.9375 13.105469 -19.613281 13.957031 -18.792969 C 14.542969 -18.238281 14.894531 -17.445312 14.894531 -16.332031 C 14.894531 -14.015625 13.371094 -12.664062 10.730469 -12.664062 L 5.011719 -12.664062 Z M 5.011719 -10.261719 L 11.375 -10.261719 C 12.605469 -10.261719 16.039062 -10.261719 16.039062 -6.480469 C 16.039062 -5.101562 15.597656 -4.191406 14.953125 -3.605469 C 13.691406 -2.433594 11.667969 -2.433594 10.789062 -2.433594 L 5.011719 -2.433594 Z M 5.011719 -10.261719 "/></g></g></g><g fill="#ffffff" fill-opacity="1"><g transform="translate(89.816254, 242.780006)"><g><path d="M 3.136719 0 L 5.101562 -5.484375 L 15.246094 -5.484375 L 17.210938 0 L 19.9375 0 L 11.699219 -22.371094 L 8.648438 -22.371094 L 0.410156 0 Z M 10.171875 -19.613281 L 14.335938 -7.886719 L 6.011719 -7.886719 Z M 10.171875 -19.613281 "/></g></g></g><g fill="#ffffff" fill-opacity="1"><g transform="translate(113.081441, 242.780006)"><g><path d="M 5.011719 0 L 5.011719 -19.613281 L 15.039062 0 L 18.96875 0 L 18.96875 -22.371094 L 16.300781 -22.371094 L 16.300781 -2.699219 L 6.246094 -22.371094 L 2.316406 -22.371094 L 2.316406 0 Z M 5.011719 0 "/></g></g></g><g fill="#ffffff" fill-opacity="1"><g transform="translate(137.313435, 242.780006)"><g><path d="M 8.445312 0 C 15.890625 0 19.964844 -4.046875 19.964844 -11.113281 C 19.964844 -18.296875 15.921875 -22.371094 8.472656 -22.371094 L 2.316406 -22.371094 L 2.316406 0 Z M 5.011719 -19.9375 L 8.445312 -19.9375 C 13.632812 -19.9375 17.269531 -17.648438 17.269531 -11.113281 C 17.269531 -4.046875 13.105469 -2.433594 8.414062 -2.433594 L 5.011719 -2.433594 Z M 5.011719 -19.9375 "/></g></g></g><g fill="#ffffff" fill-opacity="1"><g transform="translate(161.691903, 242.780006)"><g><path d="M 10.410156 0.292969 C 16.066406 0.292969 18.707031 -2.785156 18.707031 -7.742188 L 18.707031 -22.371094 L 16.007812 -22.371094 L 16.007812 -7.742188 C 16.007812 -4.25 14.308594 -2.109375 10.410156 -2.109375 C 6.507812 -2.109375 4.808594 -4.25 4.808594 -7.742188 L 4.808594 -22.371094 L 2.109375 -22.371094 L 2.109375 -7.742188 C 2.109375 -2.785156 4.75 0.292969 10.410156 0.292969 Z M 10.410156 0.292969 "/></g></g></g><g fill="#ffffff" fill-opacity="1"><g transform="translate(185.455132, 242.780006)"><g><path d="M 5.011719 0 L 5.011719 -19.613281 L 15.039062 0 L 18.96875 0 L 18.96875 -22.371094 L 16.300781 -22.371094 L 16.300781 -2.699219 L 6.246094 -22.371094 L 2.316406 -22.371094 L 2.316406 0 Z M 5.011719 0 "/></g></g></g><g fill="#ffffff" fill-opacity="1"><g transform="translate(209.687126, 242.780006)"><g><path d="M 12.019531 0.292969 C 14.835938 0.292969 17.765625 -0.820312 19.351562 -3.195312 L 19.351562 0 L 21.8125 0 L 21.8125 -11.699219 L 13.808594 -11.699219 L 13.808594 -9.292969 L 19.175781 -9.292969 C 19.175781 -4.835938 16.359375 -2.109375 11.992188 -2.109375 C 6.742188 -2.109375 4.164062 -6.363281 4.164062 -11.257812 C 4.164062 -15.863281 6.480469 -20.257812 11.933594 -20.257812 C 15.1875 -20.257812 17.414062 -18.648438 18.414062 -16.214844 L 21.433594 -16.214844 C 20.199219 -20.023438 16.976562 -22.664062 11.992188 -22.664062 C 4.71875 -22.664062 1.464844 -17.0625 1.464844 -11.171875 C 1.464844 -5.308594 4.691406 0.292969 12.019531 0.292969 Z M 12.019531 0.292969 "/></g></g></g></svg>